<svg xmlns="http://www.w3.org/2000/svg" viewBox="0 0 500 500">
  <defs>
    <radialGradient id="a" cx="250" cy="250" r="212" gradientUnits="userSpaceOnUse">
      <stop offset="0" stop-color="#323f5b"/>
      <stop offset="1"/>
    </radialGradient>
  </defs>
  <circle cx="250" cy="250" r="214.3" fill="url(#a)" stroke="#ffbe88" stroke-width="20"/>
  <path fill="#fb923c" d="M106 324.3q-3 4-8.4 6t-12.3 2q-7 0-12.4-3.2-5.5-3.2-8.4-9.1-3-6-3-14v-4.3q0-12.7 6-19.9 6-7.1 17-7.1 9.3 0 14.9 4.6 5.5 4.6 6.6 13.3h-9.6q-1.6-10-11.7-10-6.6 0-10 4.6-3.4 4.7-3.5 13.9v4.3q0 9 3.8 14.1 3.9 5 10.7 5 7.5 0 10.6-3.4v-11H84.8v-7.3H106Zm34.5-18.7-23.8-8.8v-9.2L150 302v7.4l-33.3 14.3v-9.2Z" style="white-space:pre" transform="matrix(3.8502 0 0 4.01145 -153.1 -966.1)"/>
</svg>
