<svg xmlns="http://www.w3.org/2000/svg" class="path" style="background-color:#5a1c31" viewBox="0 0 1500 1500">
  <path fill="#591b31" stroke="#591b31" d="M-750 1531V0c30 0 270-63 300-63S-180 63-150 63 120-63 150-63 420 63 450 63 720-63 750-63s270 126 300 126 270-126 300-126l678 63v1531Z"/>
  <path fill="#591a32" stroke="#591a32" d="M-750 1531-765 15c30 0 270-63 300-63S-195 78-165 78 105-48 135-48 405 78 435 78 705-48 735-48s270 126 300 126 270-126 300-126l693 63v1516Z"/>
  <path fill="#581932" stroke="#581932" d="M-750 1531-780 31c30 0 270-63 300-63S-210 94-180 94 90-32 120-32 390 94 420 94 690-32 720-32 990 94 1020 94s270-126 300-126l708 63v1500Z"/>
  <path fill="#571832" stroke="#571832" d="M-750 1531-795 46c30 0 270-63 300-63s270 126 300 126S75-17 105-17s270 126 300 126S675-17 705-17s270 126 300 126 270-126 300-126l723 63v1485Z"/>
  <path fill="#561833" stroke="#561833" d="M-750 1531-810 62c30 0 270-63 300-63s270 126 300 126S60-1 90-1s270 126 300 126S660-1 690-1s270 126 300 126S1260-1 1290-1l738 63v1469Z"/>
  <path fill="#561733" stroke="#561733" d="M-750 1531-825 78c30 0 270-63 300-63s270 126 300 126S45 15 75 15s270 126 300 126S645 15 675 15s270 126 300 126 270-126 300-126 270 126 300 126l453-63v1453Z"/>
  <path fill="#551633" stroke="#551633" d="M-750 1531-840 93c30 0 270-63 300-63s270 126 300 126S30 30 60 30s270 126 300 126S630 30 660 30s270 126 300 126 270-126 300-126 270 126 300 126l468-63v1438Z"/>
  <path fill="#541534" stroke="#541534" d="M-750 1531-855 109c30 0 270-63 300-63s270 126 300 126S15 46 45 46s270 126 300 126S615 46 645 46s270 126 300 126 270-126 300-126 270 126 300 126l483-63v1422Z"/>
  <path fill="#531434" stroke="#531434" d="M-750 1531-870 124c30 0 270-63 300-63s270 126 300 126S0 61 30 61s270 126 300 126S600 61 630 61s270 126 300 126 270-126 300-126 270 126 300 126l498-63v1407Z"/>
  <path fill="#521335" stroke="#521335" d="M-750 1531-885 140c30 0 270-63 300-63s270 126 300 126S-15 77 15 77s270 126 300 126S585 77 615 77s270 126 300 126 270-126 300-126 270 126 300 126l513-63v1391Z"/>
  <path fill="#511335" stroke="#511335" d="M-750 1531-900 156c30 0 270-63 300-63s270 126 300 126S-30 93 0 93s270 126 300 126S570 93 600 93s270 126 300 126 270-126 300-126 270 126 300 126l528-63v1375Z"/>
  <path fill="#501235" stroke="#501235" d="M-750 1531-915 171c30 0 270-63 300-63s270 126 300 126S-45 108-15 108s270 126 300 126 270-126 300-126 270 126 300 126 270-126 300-126 270 126 300 126l543-63v1360Z"/>
  <path fill="#4f1136" stroke="#4f1136" d="M-750 1531-930 187c30 0 270-63 300-63s270 126 300 126S-60 124-30 124s270 126 300 126 270-126 300-126 270 126 300 126 270-126 300-126 270 126 300 126l558-63v1344Z"/>
  <path fill="#4e1136" stroke="#4e1136" d="M-750 1531-945 203c30 0 270-63 300-63s270 126 300 126S-75 140-45 140s270 126 300 126 270-126 300-126 270 126 300 126 270-126 300-126 270 126 300 126l573-63v1328Z"/>
  <path fill="#4d1037" stroke="#4d1037" d="M-750 1531-960 218c30 0 270-63 300-63s270 126 300 126S-90 155-60 155s270 126 300 126 270-126 300-126 270 126 300 126 270-126 300-126 270 126 300 126l588-63v1313Z"/>
  <path fill="#4c0f37" stroke="#4c0f37" d="M-750 1531-975 234c30 0 270-63 300-63s270 126 300 126 270-126 300-126 270 126 300 126 270-126 300-126 270 126 300 126 270-126 300-126 270 126 300 126l603-63v1297Z"/>
  <path fill="#4b0f37" stroke="#4b0f37" d="M-750 1531-990 249c30 0 270-63 300-63s270 126 300 126 270-126 300-126 270 126 300 126 270-126 300-126 270 126 300 126 270-126 300-126 270 126 300 126l618-63v1282Z"/>
  <path fill="#4a0e38" stroke="#4a0e38" d="m-750 1531-255-1266c30 0 270-63 300-63s270 126 300 126 270-126 300-126 270 126 300 126 270-126 300-126 270 126 300 126 270-126 300-126 270 126 300 126l633-63v1266Z"/>
  <path fill="#490e38" stroke="#490e38" d="m-750 1531-270-1250c30 0 270-63 300-63s270 126 300 126 270-126 300-126 270 126 300 126 270-126 300-126 270 126 300 126 270-126 300-126 270 126 300 126l648-63v1250Z"/>
  <path fill="#480d39" stroke="#480d39" d="m-750 1531-285-1235c30 0 270-63 300-63s270 126 300 126 270-126 300-126 270 126 300 126 270-126 300-126 270 126 300 126 270-126 300-126 270 126 300 126l663-63v1235Z"/>
  <path fill="#470d39" stroke="#470d39" d="m-750 1531-300-1219c30 0 270-63 300-63s270 126 300 126 270-126 300-126 270 126 300 126 270-126 300-126 270 126 300 126 270-126 300-126 270 126 300 126l678-63v1219Z"/>
  <path fill="#450c3a" stroke="#450c3a" d="m-750 1531-315-1203c30 0 270-63 300-63s270 126 300 126 270-126 300-126 270 126 300 126 270-126 300-126 270 126 300 126 270-126 300-126 270 126 300 126l693-63v1203Z"/>
  <path fill="#440c3a" stroke="#440c3a" d="m-750 1531-330-1188c30 0 270-63 300-63s270 126 300 126 270-126 300-126S90 406 120 406s270-126 300-126 270 126 300 126 270-126 300-126 270 126 300 126l708-63v1188Z"/>
  <path fill="#430b3a" stroke="#430b3a" d="m-750 1531-345-1172c30 0 270-63 300-63s270 126 300 126 270-126 300-126S75 422 105 422s270-126 300-126 270 126 300 126 270-126 300-126 270 126 300 126l723-63v1172Z"/>
  <path fill="#410b3b" stroke="#410b3b" d="m-750 1531-360-1157c30 0 270-63 300-63s270 126 300 126 270-126 300-126S60 437 90 437s270-126 300-126 270 126 300 126 270-126 300-126 270 126 300 126l738-63v1157Z"/>
  <path fill="#400b3b" stroke="#400b3b" d="m-750 1531-375-1141c30 0 270-63 300-63s270 126 300 126 270-126 300-126S45 453 75 453s270-126 300-126 270 126 300 126 270-126 300-126 270 126 300 126 270-126 300-126l453 63v1141Z"/>
  <path fill="#3f0a3c" stroke="#3f0a3c" d="m-750 1531-390-1125c30 0 270-63 300-63s270 126 300 126 270-126 300-126S30 469 60 469s270-126 300-126 270 126 300 126 270-126 300-126 270 126 300 126 270-126 300-126l468 63v1125Z"/>
  <path fill="#3d0a3c" stroke="#3d0a3c" d="m-750 1531-405-1110c30 0 270-63 300-63s270 126 300 126 270-126 300-126S15 484 45 484s270-126 300-126 270 126 300 126 270-126 300-126 270 126 300 126 270-126 300-126l483 63v1110Z"/>
  <path fill="#3c0a3d" stroke="#3c0a3d" d="m-750 1531-420-1094c30 0 270-63 300-63s270 126 300 126 270-126 300-126S0 500 30 500s270-126 300-126 270 126 300 126 270-126 300-126 270 126 300 126 270-126 300-126l498 63v1094Z"/>
  <path fill="#3a0a3d" stroke="#3a0a3d" d="m-750 1531-435-1079c30 0 270-63 300-63s270 126 300 126 270-126 300-126S-15 515 15 515s270-126 300-126 270 126 300 126 270-126 300-126 270 126 300 126 270-126 300-126l513 63v1079Z"/>
  <path fill="#390a3d" stroke="#390a3d" d="m-750 1531-450-1063c30 0 270-63 300-63s270 126 300 126 270-126 300-126S-30 531 0 531s270-126 300-126 270 126 300 126 270-126 300-126 270 126 300 126 270-126 300-126l528 63v1063Z"/>
  <path fill="#370a3e" stroke="#370a3e" d="m-750 1531-465-1047c30 0 270-63 300-63s270 126 300 126 270-126 300-126S-45 547-15 547s270-126 300-126 270 126 300 126 270-126 300-126 270 126 300 126 270-126 300-126l543 63v1047Z"/>
  <path fill="#350a3e" stroke="#350a3e" d="m-750 1531-480-1032c30 0 270-63 300-63s270 126 300 126 270-126 300-126S-60 562-30 562s270-126 300-126 270 126 300 126 270-126 300-126 270 126 300 126 270-126 300-126l558 63v1032Z"/>
  <path fill="#340a3f" stroke="#340a3f" d="m-750 1531-495-1016c30 0 270-63 300-63s270 126 300 126 270-126 300-126S-75 578-45 578s270-126 300-126 270 126 300 126 270-126 300-126 270 126 300 126 270-126 300-126l573 63v1016Z"/>
  <path fill="#320a3f" stroke="#320a3f" d="m-750 1531-510-1000c30 0 270-63 300-63s270 126 300 126 270-126 300-126S-90 594-60 594s270-126 300-126 270 126 300 126 270-126 300-126 270 126 300 126 270-126 300-126l588 63v1000Z"/>
  <path fill="#300a3f" stroke="#300a3f" d="m-750 1531-525-985c30 0 270-63 300-63s270 126 300 126 270-126 300-126 270 126 300 126 270-126 300-126 270 126 300 126 270-126 300-126 270 126 300 126 270-126 300-126l603 63v985Z"/>
  <path fill="#2e0a40" stroke="#2e0a40" d="m-750 1531-540-969c30 0 270-63 300-63s270 126 300 126 270-126 300-126 270 126 300 126 270-126 300-126 270 126 300 126 270-126 300-126 270 126 300 126 270-126 300-126l618 63v969Z"/>
  <path fill="#2c0a40" stroke="#2c0a40" d="m-750 1531-555-954c30 0 270-63 300-63s270 126 300 126 270-126 300-126 270 126 300 126 270-126 300-126 270 126 300 126 270-126 300-126 270 126 300 126 270-126 300-126l633 63v954Z"/>
  <path fill="#2a0a41" stroke="#2a0a41" d="m-750 1531-570-938c30 0 270-63 300-63s270 126 300 126 270-126 300-126 270 126 300 126 270-126 300-126 270 126 300 126 270-126 300-126 270 126 300 126 270-126 300-126l648 63v938Z"/>
  <path fill="#280a41" stroke="#280a41" d="m-750 1531-585-922c30 0 270-63 300-63s270 126 300 126 270-126 300-126 270 126 300 126 270-126 300-126 270 126 300 126 270-126 300-126 270 126 300 126 270-126 300-126l663 63v922Z"/>
  <path fill="#260b41" stroke="#260b41" d="m-750 1531-600-907c30 0 270-63 300-63s270 126 300 126 270-126 300-126 270 126 300 126 270-126 300-126 270 126 300 126 270-126 300-126 270 126 300 126 270-126 300-126l678 63v907Z"/>
  <path fill="#240b42" stroke="#240b42" d="m-750 1531-615-891c30 0 270-63 300-63s270 126 300 126 270-126 300-126 270 126 300 126 270-126 300-126 270 126 300 126 270-126 300-126 270 126 300 126 270-126 300-126l693 63v891Z"/>
  <path fill="#210b42" stroke="#210b42" d="m-750 1531-630-875c30 0 270-63 300-63s270 126 300 126 270-126 300-126 270 126 300 126S90 593 120 593s270 126 300 126 270-126 300-126 270 126 300 126 270-126 300-126l708 63v875Z"/>
  <path fill="#1f0b42" stroke="#1f0b42" d="m-750 1531-645-860c30 0 270-63 300-63s270 126 300 126 270-126 300-126 270 126 300 126S75 608 105 608s270 126 300 126 270-126 300-126 270 126 300 126 270-126 300-126l723 63v860Z"/>
  <path fill="#1c0b42" stroke="#1c0b42" d="m-750 1531-660-844c30 0 270-63 300-63s270 126 300 126 270-126 300-126 270 126 300 126S60 624 90 624s270 126 300 126 270-126 300-126 270 126 300 126 270-126 300-126l738 63v844Z"/>
  <path fill="#190c43" stroke="#190c43" d="m-750 1531-675-829c30 0 270-63 300-63s270 126 300 126 270-126 300-126 270 126 300 126S45 639 75 639s270 126 300 126 270-126 300-126 270 126 300 126 270-126 300-126 270 126 300 126l453-63v829Z"/>
  <path fill="#160c43" stroke="#160c43" d="m-750 1531-690-813c30 0 270-63 300-63s270 126 300 126 270-126 300-126 270 126 300 126S30 655 60 655s270 126 300 126 270-126 300-126 270 126 300 126 270-126 300-126 270 126 300 126l468-63v813Z"/>
  <path fill="#120c43" stroke="#120c43" d="m-750 1531-705-797c30 0 270-63 300-63s270 126 300 126 270-126 300-126 270 126 300 126S15 671 45 671s270 126 300 126 270-126 300-126 270 126 300 126 270-126 300-126 270 126 300 126l483-63v797Z"/>
  <path fill="#0e0c44" stroke="#0e0c44" d="m-750 1531-720-782c30 0 270-63 300-63s270 126 300 126 270-126 300-126 270 126 300 126S0 686 30 686s270 126 300 126 270-126 300-126 270 126 300 126 270-126 300-126 270 126 300 126l498-63v782Z"/>
  <path fill="#090c44" stroke="#090c44" d="m-750 1531-735-766c30 0 270-63 300-63s270 126 300 126 270-126 300-126 270 126 300 126S-15 702 15 702s270 126 300 126 270-126 300-126 270 126 300 126 270-126 300-126 270 126 300 126l513-63v766Z"/>
  <path fill="#040c44" stroke="#040c44" d="m-750 1531-750-750c30 0 270-63 300-63s270 126 300 126 270-126 300-126 270 126 300 126S-30 718 0 718s270 126 300 126 270-126 300-126 270 126 300 126 270-126 300-126 270 126 300 126l528-63v750Z"/>
</svg>
